<svg xmlns="http://www.w3.org/2000/svg" viewBox="0 0 512 512" width="512" height="512">
  <rect width="512" height="512" rx="96" fill="#0b3d2e"/>
  <g fill="none" stroke="#34d399" stroke-width="18" stroke-linecap="round" stroke-linejoin="round">
    <!-- thermometer -->
    <path d="M176 120 v150 a56 56 0 1 0 56 0 V120 a28 28 0 0 0 -56 0 Z" fill="#0e1512" stroke="#34d399"/>
    <circle cx="204" cy="300" r="34" fill="#38bdf8" stroke="#38bdf8"/>
    <!-- flame (furnace) -->
    <path d="M330 200 c40 30 50 70 20 110 c10 -30 -10 -50 -30 -55 c25 35 15 75 -20 95 c-5 -70 35 -110 30 -150 Z" fill="#fbbf24" stroke="#fbbf24"/>
    <!-- snow / balance arrow -->
    <path d="M120 400 h272" stroke="#eaf3ee"/>
    <path d="M360 384 l24 16 -24 16" stroke="#eaf3ee"/>
  </g>
</svg>
