<svg xmlns="http://www.w3.org/2000/svg" viewBox="0 0 512 512" width="512" height="512">
  <defs>
    <linearGradient id="bg" x1="0" y1="0" x2="1" y2="1">
      <stop offset="0" stop-color="#182342"/>
      <stop offset="1" stop-color="#0b101f"/>
    </linearGradient>
    <linearGradient id="fl" x1="0" y1="1" x2="1" y2="0">
      <stop offset="0" stop-color="#38bdf8"/>
      <stop offset="0.42" stop-color="#7dd3fc"/>
      <stop offset="0.58" stop-color="#fbbf24"/>
      <stop offset="1" stop-color="#f97316"/>
    </linearGradient>
  </defs>
  <rect width="512" height="512" rx="112" fill="url(#bg)"/>
  <path fill="url(#fl)" d="M 256 64
    C 292 140 384 200 384 308
    C 384 396 326 456 256 456
    C 186 456 128 396 128 308
    C 128 246 158 204 196 158
    C 198 210 224 242 258 246
    C 222 186 230 118 256 64 Z"/>
  <path fill="#0d1322" opacity="0.92" d="M 256 272
    C 278 308 318 326 318 366
    C 318 402 292 426 256 426
    C 220 426 194 402 194 366
    C 194 326 234 308 256 272 Z"/>
</svg>
